<svg xmlns="http://www.w3.org/2000/svg" width="980" height="360" viewBox="0 0 980 360">
  <style>
    .box { fill: #f7f7f7; stroke: #333; stroke-width: 1.2; }
    .text { font: 14px sans-serif; fill: #111; }
    .arrow { stroke: #333; stroke-width: 1.2; marker-end: url(#arrowhead); }
  </style>
  <defs>
    <marker id="arrowhead" markerWidth="10" markerHeight="7" refX="9" refY="3.5" orient="auto">
      <polygon points="0 0, 10 3.5, 0 7" fill="#333" />
    </marker>
  </defs>
  <rect class="box" x="30" y="40" width="190" height="60" rx="8" />
  <text class="text" x="45" y="75">PDF/DOCX/TXT</text>

  <rect class="box" x="260" y="40" width="200" height="60" rx="8" />
  <text class="text" x="275" y="65">Parse → Markdown</text>
  <text class="text" x="275" y="85">Doc tree + Chunking</text>

  <rect class="box" x="500" y="40" width="200" height="60" rx="8" />
  <text class="text" x="515" y="75">Embed + Index</text>

  <rect class="box" x="740" y="40" width="200" height="60" rx="8" />
  <text class="text" x="755" y="65">FAISS + BM25</text>
  <text class="text" x="755" y="85">Store artifacts</text>

  <rect class="box" x="260" y="180" width="200" height="60" rx="8" />
  <text class="text" x="275" y="205">Query → Retrieval</text>
  <text class="text" x="275" y="225">Hybrid + HyDE</text>

  <rect class="box" x="500" y="180" width="200" height="60" rx="8" />
  <text class="text" x="515" y="205">Context Builder</text>
  <text class="text" x="515" y="225">Citations + Guard</text>

  <rect class="box" x="740" y="180" width="200" height="60" rx="8" />
  <text class="text" x="755" y="205">Ollama LLM</text>
  <text class="text" x="755" y="225">Grounded Answer</text>

  <line class="arrow" x1="220" y1="70" x2="260" y2="70" />
  <line class="arrow" x1="460" y1="70" x2="500" y2="70" />
  <line class="arrow" x1="700" y1="70" x2="740" y2="70" />

  <line class="arrow" x1="260" y1="210" x2="460" y2="210" />
  <line class="arrow" x1="700" y1="210" x2="740" y2="210" />

  <line class="arrow" x1="840" y1="100" x2="840" y2="180" />
  <line class="arrow" x1="150" y1="100" x2="150" y2="180" />
  <line class="arrow" x1="150" y1="180" x2="260" y2="210" />
</svg>
